<?plantuml 1.2026.2?><svg xmlns="http://www.w3.org/2000/svg" xmlns:xlink="http://www.w3.org/1999/xlink" contentStyleType="text/css" data-diagram-type="DESCRIPTION" height="1576px" preserveAspectRatio="none" style="width:1023px;height:1576px;background:#FFFFFF;" version="1.1" viewBox="0 0 1023 1576" width="1023px" zoomAndPan="magnify"><defs/><g><!--cluster OmniMart - Marketplace--><g class="cluster" data-qualified-name="OmniMart - Marketplace" data-source-line="20" id="ent0008"><rect fill="none" height="1456" rx="2.5" ry="2.5" style="stroke:#181818;stroke-width:1;" width="781" x="236" y="7"/><text fill="#000000" font-family="sans-serif" font-size="14" font-weight="bold" lengthAdjust="spacing" textLength="191.6318" x="530.6841" y="21.9951">OmniMart - Marketplace</text></g><!--cluster RF001 - Gest?o de Contas e Perfis--><g class="cluster" data-qualified-name="OmniMart - Marketplace.RF001 - Gest.o de Contas e Perfis" data-source-line="22" id="ent0009"><rect fill="none" height="254" rx="2.5" ry="2.5" style="stroke:#181818;stroke-width:1;" width="284" x="268.5" y="1185"/><text fill="#000000" font-family="sans-serif" font-size="14" font-weight="bold" lengthAdjust="spacing" textLength="268.9258" x="276.0371" y="1199.9951">RF001 - Gest&#227;o de Contas e Perfis</text></g><!--cluster RF002 - Gest?o do Cat?logo--><g class="cluster" data-qualified-name="OmniMart - Marketplace.RF002 - Gest.o do Cat.logo" data-source-line="28" id="ent0013"><rect fill="none" height="258" rx="2.5" ry="2.5" style="stroke:#181818;stroke-width:1;" width="245" x="287.5" y="903"/><text fill="#000000" font-family="sans-serif" font-size="14" font-weight="bold" lengthAdjust="spacing" textLength="219.5088" x="300.2456" y="917.9951">RF002 - Gest&#227;o do Cat&#225;logo</text></g><!--cluster RF003 - Busca e Filtragem--><g class="cluster" data-qualified-name="OmniMart - Marketplace.RF003 - Busca e Filtragem" data-source-line="34" id="ent0017"><rect fill="none" height="173" rx="2.5" ry="2.5" style="stroke:#181818;stroke-width:1;" width="225" x="297.5" y="50"/><text fill="#000000" font-family="sans-serif" font-size="14" font-weight="bold" lengthAdjust="spacing" textLength="207.3955" x="306.3022" y="64.9951">RF003 - Busca e Filtragem</text></g><!--cluster RF004 - Carrinho de Compras--><g class="cluster" data-qualified-name="OmniMart - Marketplace.RF004 - Carrinho de Compras" data-source-line="39" id="ent0020"><rect fill="none" height="273" rx="2.5" ry="2.5" style="stroke:#181818;stroke-width:1;" width="300" x="260" y="247"/><text fill="#000000" font-family="sans-serif" font-size="14" font-weight="bold" lengthAdjust="spacing" textLength="231.458" x="294.271" y="261.9951">RF004 - Carrinho de Compras</text></g><!--cluster RF005 - Checkout e Pagamento--><g class="cluster" data-qualified-name="OmniMart - Marketplace.RF005 - Checkout e Pagamento" data-source-line="45" id="ent0024"><rect fill="none" height="115" rx="2.5" ry="2.5" style="stroke:#181818;stroke-width:1;" width="700.5" x="292.5" y="544"/><text fill="#000000" font-family="sans-serif" font-size="14" font-weight="bold" lengthAdjust="spacing" textLength="247.5293" x="518.9854" y="558.9951">RF005 - Checkout e Pagamento</text></g><!--cluster RF006 - Gest?o de Pedidos--><g class="cluster" data-qualified-name="OmniMart - Marketplace.RF006 - Gest.o de Pedidos" data-source-line="50" id="ent0027"><rect fill="none" height="196" rx="2.5" ry="2.5" style="stroke:#181818;stroke-width:1;" width="288" x="266" y="683"/><text fill="#000000" font-family="sans-serif" font-size="14" font-weight="bold" lengthAdjust="spacing" textLength="212.0166" x="303.9917" y="697.9951">RF006 - Gest&#227;o de Pedidos</text></g><!--entity CSU01--><g class="entity" data-qualified-name="OmniMart - Marketplace.RF001 - Gest.o de Contas e Perfis.CSU01" data-source-line="23" id="ent0010"><ellipse cx="409.8728" cy="1243.7746" fill="#E0FFFF" rx="104.3728" ry="23.2746" style="stroke:#008B8B;stroke-width:0.5;"/><text fill="#000000" font-family="sans-serif" font-size="14" lengthAdjust="spacing" textLength="185.6504" x="317.0476" y="1248.423">CSU01 - Cadastrar usu&#225;rio</text></g><!--entity CSU02--><g class="entity" data-qualified-name="OmniMart - Marketplace.RF001 - Gest.o de Contas e Perfis.CSU02" data-source-line="24" id="ent0011"><ellipse cx="409.8282" cy="1323.0656" fill="#E0FFFF" rx="90.8282" ry="20.5656" style="stroke:#008B8B;stroke-width:0.5;"/><text fill="#000000" font-family="sans-serif" font-size="14" lengthAdjust="spacing" textLength="155.6133" x="332.0216" y="1327.7141">CSU02 - Realizar login</text></g><!--entity CSU03--><g class="entity" data-qualified-name="OmniMart - Marketplace.RF001 - Gest.o de Contas e Perfis.CSU03" data-source-line="25" id="ent0012"><ellipse cx="410.1318" cy="1400.8264" fill="#E0FFFF" rx="97.1318" ry="21.8264" style="stroke:#008B8B;stroke-width:0.5;"/><text fill="#000000" font-family="sans-serif" font-size="14" lengthAdjust="spacing" textLength="169.7158" x="325.2739" y="1405.4748">CSU03 - Gerenciar perfil</text></g><!--entity CSU04--><g class="entity" data-qualified-name="OmniMart - Marketplace.RF002 - Gest.o do Cat.logo.CSU04" data-source-line="29" id="ent0014"><ellipse cx="410.1324" cy="1044.0265" fill="#E0FFFF" rx="105.6324" ry="23.5265" style="stroke:#008B8B;stroke-width:0.5;"/><text fill="#000000" font-family="sans-serif" font-size="14" lengthAdjust="spacing" textLength="188.3984" x="315.9332" y="1048.6749">CSU04 - Cadastrar Produto</text></g><!--entity CSU05--><g class="entity" data-qualified-name="OmniMart - Marketplace.RF002 - Gest.o do Cat.logo.CSU05" data-source-line="30" id="ent0015"><ellipse cx="409.79" cy="1124.058" fill="#E0FFFF" rx="93.29" ry="21.058" style="stroke:#008B8B;stroke-width:0.5;"/><text fill="#000000" font-family="sans-serif" font-size="14" lengthAdjust="spacing" textLength="161.1504" x="329.2148" y="1128.7064">CSU05 - Editar Produto</text></g><!--entity CSU06--><g class="entity" data-qualified-name="OmniMart - Marketplace.RF002 - Gest.o do Cat.logo.CSU06" data-source-line="31" id="ent0016"><ellipse cx="410.0147" cy="962.2029" fill="#E0FFFF" rx="106.5147" ry="23.7029" style="stroke:#008B8B;stroke-width:0.5;"/><text fill="#000000" font-family="sans-serif" font-size="14" lengthAdjust="spacing" textLength="190.3193" x="314.855" y="966.8514">CSU06 - Gerenciar Estoque</text></g><!--entity CSU07--><g class="entity" data-qualified-name="OmniMart - Marketplace.RF003 - Busca e Filtragem.CSU07" data-source-line="35" id="ent0018"><ellipse cx="410.1378" cy="107.1276" fill="#E0FFFF" rx="96.1378" ry="21.6276" style="stroke:#008B8B;stroke-width:0.5;"/><text fill="#000000" font-family="sans-serif" font-size="14" lengthAdjust="spacing" textLength="167.5078" x="326.3839" y="111.776">CSU07 - Buscar Produto</text></g><!--entity CSU08--><g class="entity" data-qualified-name="OmniMart - Marketplace.RF003 - Busca e Filtragem.CSU08" data-source-line="36" id="ent0019"><ellipse cx="410.2499" cy="185.25" fill="#E0FFFF" rx="96.7499" ry="21.75" style="stroke:#008B8B;stroke-width:0.5;"/><text fill="#000000" font-family="sans-serif" font-size="14" lengthAdjust="spacing" textLength="168.8682" x="325.8158" y="189.8984">CSU08 - Filtrar Cat&#225;logo</text></g><!--entity CSU09--><g class="entity" data-qualified-name="OmniMart - Marketplace.RF004 - Carrinho de Compras.CSU09" data-source-line="40" id="ent0021"><ellipse cx="409.9119" cy="311.1824" fill="#E0FFFF" rx="133.9119" ry="29.1824" style="stroke:#008B8B;stroke-width:0.5;"/><text fill="#000000" font-family="sans-serif" font-size="14" lengthAdjust="spacing" textLength="248.8213" x="285.5013" y="315.8308">CSU09 - Adicionar Item ao Carrinho</text></g><!--entity CSU10--><g class="entity" data-qualified-name="OmniMart - Marketplace.RF004 - Carrinho de Compras.CSU10" data-source-line="41" id="ent0022"><ellipse cx="410.0668" cy="400.9134" fill="#E0FFFF" rx="115.0668" ry="25.4134" style="stroke:#008B8B;stroke-width:0.5;"/><text fill="#000000" font-family="sans-serif" font-size="14" lengthAdjust="spacing" textLength="208.7969" x="305.6683" y="405.5618">CSU10 - Atualizar Quantidade</text></g><!--entity CSU11--><g class="entity" data-qualified-name="OmniMart - Marketplace.RF004 - Carrinho de Compras.CSU11" data-source-line="42" id="ent0023"><ellipse cx="409.8633" cy="482.9727" fill="#E0FFFF" rx="92.8633" ry="20.9727" style="stroke:#008B8B;stroke-width:0.5;"/><text fill="#000000" font-family="sans-serif" font-size="14" lengthAdjust="spacing" textLength="160.1934" x="329.7666" y="487.6211">CSU11 - Remover Item</text></g><!--entity CSU12--><g class="entity" data-qualified-name="OmniMart - Marketplace.RF005 - Checkout e Pagamento.CSU12" data-source-line="46" id="ent0025"><ellipse cx="409.9206" cy="605.1841" fill="#E0FFFF" rx="101.4206" ry="22.6841" style="stroke:#008B8B;stroke-width:0.5;"/><text fill="#000000" font-family="sans-serif" font-size="14" lengthAdjust="spacing" textLength="179.1836" x="320.3288" y="609.8326">CSU12 - Finalizar Compra</text></g><!--entity CSU13--><g class="entity" data-qualified-name="OmniMart - Marketplace.RF005 - Checkout e Pagamento.CSU13" data-source-line="47" id="ent0026"><ellipse cx="831.8121" cy="610.8624" fill="#E0FFFF" rx="144.8121" ry="31.3624" style="stroke:#008B8B;stroke-width:0.5;"/><text fill="#000000" font-family="sans-serif" font-size="14" lengthAdjust="spacing" textLength="271.667" x="695.9786" y="615.5109">CSU13 - Processar Pagamento Externo</text></g><!--entity CSU14--><g class="entity" data-qualified-name="OmniMart - Marketplace.RF006 - Gest.o de Pedidos.CSU14" data-source-line="51" id="ent0028"><ellipse cx="410.1127" cy="745.2225" fill="#E0FFFF" rx="124.1127" ry="27.2225" style="stroke:#008B8B;stroke-width:0.5;"/><text fill="#000000" font-family="sans-serif" font-size="14" lengthAdjust="spacing" textLength="228.1084" x="296.0585" y="749.871">CSU14 - Consultar Meus Pedidos</text></g><!--entity CSU15--><g class="entity" data-qualified-name="OmniMart - Marketplace.RF006 - Gest.o de Pedidos.CSU15" data-source-line="52" id="ent0029"><ellipse cx="410.1089" cy="835.0218" fill="#E0FFFF" rx="128.1089" ry="28.0218" style="stroke:#008B8B;stroke-width:0.5;"/><text fill="#000000" font-family="sans-serif" font-size="14" lengthAdjust="spacing" textLength="236.5781" x="291.8198" y="839.6702">CSU15 - Atualizar Status de Envio</text></g><!--entity Usuario--><g class="entity" data-qualified-name="Usuario" data-source-line="12" id="ent0002"><ellipse cx="32.6021" cy="1214.5" fill="#F0F8FF" rx="8" ry="8" style="stroke:#00008B;stroke-width:0.5;"/><path d="M32.6021,1222.5 L32.6021,1249.5 M19.6021,1230.5 L45.6021,1230.5 M32.6021,1249.5 L19.6021,1264.5 M32.6021,1249.5 L45.6021,1264.5" fill="none" style="stroke:#00008B;stroke-width:0.5;"/><text fill="#000000" font-family="sans-serif" font-size="14" lengthAdjust="spacing" textLength="53.2041" x="6" y="1278.9951">Usu&#225;rio</text></g><!--entity Comprador--><g class="entity" data-qualified-name="Comprador" data-source-line="13" id="ent0003"><ellipse cx="159.2041" cy="413.5" fill="#F0F8FF" rx="8" ry="8" style="stroke:#00008B;stroke-width:0.5;"/><path d="M159.2041,421.5 L159.2041,448.5 M146.2041,429.5 L172.2041,429.5 M159.2041,448.5 L146.2041,463.5 M159.2041,448.5 L172.2041,463.5" fill="none" style="stroke:#00008B;stroke-width:0.5;"/><text fill="#000000" font-family="sans-serif" font-size="14" lengthAdjust="spacing" textLength="78.4082" x="120" y="477.9951">Comprador</text></g><!--entity Vendedor--><g class="entity" data-qualified-name="Vendedor" data-source-line="14" id="ent0004"><ellipse cx="158.8857" cy="1014.5" fill="#F0F8FF" rx="8" ry="8" style="stroke:#00008B;stroke-width:0.5;"/><path d="M158.8857,1022.5 L158.8857,1049.5 M145.8857,1030.5 L171.8857,1030.5 M158.8857,1049.5 L145.8857,1064.5 M158.8857,1049.5 L171.8857,1064.5" fill="none" style="stroke:#00008B;stroke-width:0.5;"/><text fill="#000000" font-family="sans-serif" font-size="14" lengthAdjust="spacing" textLength="67.7715" x="125" y="1078.9951">Vendedor</text></g><!--entity Gateway--><g class="entity" data-qualified-name="Gateway" data-source-line="15" id="ent0005"><ellipse cx="409.9556" cy="1503.2969" fill="#F0F8FF" rx="8" ry="8" style="stroke:#00008B;stroke-width:0.5;"/><path d="M409.9556,1511.2969 L409.9556,1538.2969 M396.9556,1519.2969 L422.9556,1519.2969 M409.9556,1538.2969 L396.9556,1553.2969 M409.9556,1538.2969 L422.9556,1553.2969" fill="none" style="stroke:#00008B;stroke-width:0.5;"/><text fill="#000000" font-family="sans-serif" font-size="14" lengthAdjust="spacing" textLength="167.9111" x="326" y="1567.792">Gateway de Pagamento</text><text fill="#000000" font-family="sans-serif" font-size="14" font-style="italic" lengthAdjust="spacing" textLength="132.5488" x="343.6812" y="1491.4951">&#171;Sistema Externo&#187;</text></g><!--reverse link Usuario to Comprador--><g class="link" data-entity-1="ent0002" data-entity-2="ent0003" data-link-type="extension" data-source-line="17" id="lnk6"><path d="M42.1843,1188.1135 C63.1543,1053.1835 131.01,616.63 152.04,481.33" fill="none" id="Usuario-backto-Comprador" style="stroke:#181818;stroke-width:1;"/><polygon fill="none" points="39.42,1205.9,48.1131,1189.0349,36.2554,1187.1921,39.42,1205.9" style="stroke:#181818;stroke-width:1;"/></g><!--reverse link Usuario to Vendedor--><g class="link" data-entity-1="ent0002" data-entity-2="ent0004" data-link-type="extension" data-source-line="18" id="lnk7"><path d="M66.7225,1190.6289 C88.8025,1155.1589 112.04,1117.83 134.17,1082.29" fill="none" id="Usuario-backto-Vendedor" style="stroke:#181818;stroke-width:1;"/><polygon fill="none" points="57.21,1205.91,71.8162,1193.7997,61.6288,1187.458,57.21,1205.91" style="stroke:#181818;stroke-width:1;"/></g><!--link Usuario to CSU01--><g class="link" data-entity-1="ent0002" data-entity-2="ent0010" data-link-type="dependency" data-source-line="57" id="lnk30"><path d="M59.01,1244 C108.78,1244 215.3,1244 299.41,1244" fill="none" id="Usuario-to-CSU01" style="stroke:#181818;stroke-width:1;"/><polygon fill="#181818" points="305.41,1244,296.41,1240,300.41,1244,296.41,1248,305.41,1244" style="stroke:#181818;stroke-width:1;"/></g><!--link Usuario to CSU02--><g class="link" data-entity-1="ent0002" data-entity-2="ent0011" data-link-type="dependency" data-source-line="58" id="lnk31"><path d="M59.01,1249.37 C116.62,1261.49 252.4385,1290.0649 336.8185,1307.8149" fill="none" id="Usuario-to-CSU02" style="stroke:#181818;stroke-width:1;"/><polygon fill="#181818" points="342.69,1309.05,334.7062,1303.283,337.7971,1308.0207,333.0593,1311.1117,342.69,1309.05" style="stroke:#181818;stroke-width:1;"/></g><!--link Usuario to CSU03--><g class="link" data-entity-1="ent0002" data-entity-2="ent0012" data-link-type="dependency" data-source-line="59" id="lnk32"><path d="M59.28,1263.15 C95.4,1289.08 163.96,1335.1 229,1361 C260.67,1373.61 291.2631,1381.4908 323.0531,1387.7508" fill="none" id="Usuario-to-CSU03" style="stroke:#181818;stroke-width:1;"/><polygon fill="#181818" points="328.94,1388.91,320.8824,1383.2465,324.0342,1387.944,319.3367,1391.0958,328.94,1388.91" style="stroke:#181818;stroke-width:1;"/></g><!--link Comprador to CSU07--><g class="link" data-entity-1="ent0003" data-entity-2="ent0018" data-link-type="dependency" data-source-line="62" id="lnk33"><path d="M163.81,404.96 C171.76,333.23 192.52,181.94 229,146 C251.44,123.9 277.3285,113.9976 307.9885,108.9876" fill="none" id="Comprador-to-CSU07" style="stroke:#181818;stroke-width:1;"/><polygon fill="#181818" points="313.91,108.02,304.3827,105.5238,308.9754,108.8263,305.6729,113.419,313.91,108.02" style="stroke:#181818;stroke-width:1;"/></g><!--link Comprador to CSU08--><g class="link" data-entity-1="ent0003" data-entity-2="ent0019" data-link-type="dependency" data-source-line="63" id="lnk34"><path d="M166.12,404.96 C174.23,365.7 192.08,304.85 229,266 C259.92,233.46 300.6183,214.8477 338.5683,202.6377" fill="none" id="Comprador-to-CSU08" style="stroke:#181818;stroke-width:1;"/><polygon fill="#181818" points="344.28,200.8,334.4874,199.7487,339.5203,202.3314,336.9376,207.3643,344.28,200.8" style="stroke:#181818;stroke-width:1;"/></g><!--link Comprador to CSU09--><g class="link" data-entity-1="ent0003" data-entity-2="ent0021" data-link-type="dependency" data-source-line="64" id="lnk35"><path d="M183.01,404.82 C194.83,388.19 210.62,369.84 229,358 C250.32,344.27 269.7013,336.1546 294.3613,329.2646" fill="none" id="Comprador-to-CSU09" style="stroke:#181818;stroke-width:1;"/><polygon fill="#181818" points="300.14,327.65,290.3956,326.2194,295.3244,328.9955,292.5483,333.9243,300.14,327.65" style="stroke:#181818;stroke-width:1;"/></g><!--link Comprador to CSU10--><g class="link" data-entity-1="ent0003" data-entity-2="ent0022" data-link-type="dependency" data-source-line="65" id="lnk36"><path d="M198.09,436.58 C229.9,431.21 270.6437,424.3387 311.9937,417.3587" fill="none" id="Comprador-to-CSU10" style="stroke:#181818;stroke-width:1;"/><polygon fill="#181818" points="317.91,416.36,308.3698,413.9138,312.9797,417.1922,309.7013,421.8022,317.91,416.36" style="stroke:#181818;stroke-width:1;"/></g><!--link Comprador to CSU11--><g class="link" data-entity-1="ent0003" data-entity-2="ent0023" data-link-type="dependency" data-source-line="66" id="lnk37"><path d="M198.09,449.12 C234.05,454.9 283.0861,462.7677 327.8761,469.9677" fill="none" id="Comprador-to-CSU11" style="stroke:#181818;stroke-width:1;"/><polygon fill="#181818" points="333.8,470.92,325.5489,465.5423,328.8634,470.1264,324.2792,473.4409,333.8,470.92" style="stroke:#181818;stroke-width:1;"/></g><!--link Comprador to CSU12--><g class="link" data-entity-1="ent0003" data-entity-2="ent0025" data-link-type="dependency" data-source-line="67" id="lnk38"><path d="M188.93,481.19 C200.39,494.61 214.32,509.06 229,520 C267.51,548.71 311.683,569.1124 349.123,583.7724" fill="none" id="Comprador-to-CSU12" style="stroke:#181818;stroke-width:1;"/><polygon fill="#181818" points="354.71,585.96,347.788,578.9539,350.0542,584.137,344.8711,586.4032,354.71,585.96" style="stroke:#181818;stroke-width:1;"/></g><!--link Comprador to CSU14--><g class="link" data-entity-1="ent0003" data-entity-2="ent0028" data-link-type="dependency" data-source-line="68" id="lnk39"><path d="M163.04,481.02 C168.65,528 184.5,607.97 229,659 C255.86,689.8 290.5798,708.3793 326.2698,721.7193" fill="none" id="Comprador-to-CSU14" style="stroke:#181818;stroke-width:1;"/><polygon fill="#181818" points="331.89,723.82,324.8601,716.9221,327.2065,722.0694,322.0592,724.4158,331.89,723.82" style="stroke:#181818;stroke-width:1;"/></g><!--link Vendedor to CSU04--><g class="link" data-entity-1="ent0004" data-entity-2="ent0014" data-link-type="dependency" data-source-line="71" id="lnk40"><path d="M193.07,1044 C221.57,1044 258.34,1044 298.31,1044" fill="none" id="Vendedor-to-CSU04" style="stroke:#181818;stroke-width:1;"/><polygon fill="#181818" points="304.31,1044,295.31,1040,299.31,1044,295.31,1048,304.31,1044" style="stroke:#181818;stroke-width:1;"/></g><!--link Vendedor to CSU05--><g class="link" data-entity-1="ent0004" data-entity-2="ent0015" data-link-type="dependency" data-source-line="72" id="lnk41"><path d="M193.28,1066.72 C204.27,1073.4 216.81,1080.21 229,1085 C261.29,1097.7 292.6445,1105.5253 324.8545,1111.6153" fill="none" id="Vendedor-to-CSU05" style="stroke:#181818;stroke-width:1;"/><polygon fill="#181818" points="330.75,1112.73,322.6498,1107.1276,325.837,1111.8011,321.1636,1114.9883,330.75,1112.73" style="stroke:#181818;stroke-width:1;"/></g><!--link Vendedor to CSU06--><g class="link" data-entity-1="ent0004" data-entity-2="ent0016" data-link-type="dependency" data-source-line="73" id="lnk42"><path d="M193.31,1021.36 C204.3,1014.68 216.84,1007.86 229,1003 C258.91,991.05 287.2074,983.3897 317.6774,977.0097" fill="none" id="Vendedor-to-CSU06" style="stroke:#181818;stroke-width:1;"/><polygon fill="#181818" points="323.55,975.78,313.9213,973.7094,318.6561,976.8047,315.5608,981.5396,323.55,975.78" style="stroke:#181818;stroke-width:1;"/></g><!--link Vendedor to CSU15--><g class="link" data-entity-1="ent0004" data-entity-2="ent0029" data-link-type="dependency" data-source-line="74" id="lnk43"><path d="M174.35,1005.9 C185.84,979.6 204.15,945.3 229,922 C259.64,893.28 295.9541,874.4857 331.6141,860.3157" fill="none" id="Vendedor-to-CSU15" style="stroke:#181818;stroke-width:1;"/><polygon fill="#181818" points="337.19,858.1,327.349,857.7062,332.5434,859.9464,330.3032,865.1408,337.19,858.1" style="stroke:#181818;stroke-width:1;"/></g><!--link CSU12 to CSU13--><g class="link" data-entity-1="ent0025" data-entity-2="ent0026" data-link-type="dependency" data-source-line="77" id="lnk44"><path d="M511.33,606.43 C563.87,607.18 623.1306,608.0349 680.9706,608.8549" fill="none" id="CSU12-to-CSU13" style="stroke:#181818;stroke-width:1;stroke-dasharray:7,7;"/><polygon fill="#181818" points="686.97,608.94,678.0276,604.8128,681.9705,608.8691,677.9142,612.812,686.97,608.94" style="stroke:#181818;stroke-width:1;"/><text fill="#000000" font-family="sans-serif" font-size="13" lengthAdjust="spacing" textLength="63.0068" x="593" y="604.0669">&#171;include&#187;</text></g><!--link Gateway to CSU13--><g class="link" data-entity-1="ent0005" data-entity-2="ent0026" data-link-type="dependency" data-source-line="78" id="lnk45"><path d="M494.07,1494.24 C520.82,1480.82 548.55,1462.64 568,1439 C777.42,1184.54 820.5334,767.2455 828.7834,648.7055" fill="none" id="Gateway-to-CSU13" style="stroke:#181818;stroke-width:1;"/><polygon fill="#181818" points="829.2,642.72,824.5848,651.4206,828.8529,647.7079,832.5655,651.976,829.2,642.72" style="stroke:#181818;stroke-width:1;"/></g><?plantuml-src TLNTJjim5BxFKrYzsNPHrFGFc10IT0LD6bf7nUwFuaEmcjYTxR2nZOT1UnHURCTEuhR4oKLhdy_V-VTnWVUMMSMqo1yiuq9ZPeMIYTa8kGKD9Tj2je4Sr_QfGEPWa7c1UmSgWnaOP7yIHjyb7S-rgYHVg49fziKfNZo1h56bEUeQ-GHwuu7dFMMGMOBYgYuAaU5bKM5KbGUUawJMCBWprUkB5ch0m33Q0ArRRA7AhGQkj0V3heM_e-JOeksc1Q_1uazuOXpP2d8eKThQHWkSdQs5iLW2M_wogAKwFq-InW5szdSut3Du80wMaf1bDlXQId43sh8XexyDscq16GwQ3FcVfa1iS7ir6gLqy1gDVVsdd8iB9ItvHhwYlXUcvRclBTjWiRxpj0LmC5Q39cWlTnwEiyR4kaKen6yY5IeNCZ36SSR4kwTHPe8eM-TK4JWJpw4ITg8QxqUbo5Fx-aBsL6yyquDuLbhnokx2cSP9Co8jkR0HnYpEc1-4ipHM_QWmaEQzyRWqN5Oc0whCbIZ8oHpBtc2EszDTluxZZ1DYr7hrVh8QqaclNtNQj1RoeMaVrwdzRNDAvo-uo6XYaANFrFKCLD0G39v6sUd8iMtLzC-t2gGL77X8O3gAyrBVTgLwnDfcE9_s1kPAktZ0RACgomvkRZooTEmpA1lVwZm4E_7cJbrLgK0P6kDArTfevq2Wz_Vv_F3shf0BhdhJd_foAMcgmlNi3LPcHsbinLizdHsaVct14fSiBkNZxjgdiyPHSlKTPPmcZokq3yhFL3yat0M0Whttq-T366d3uNapEjvAnXt99AP_DoN3AX2E8xAJYEoqAwEcwihIY6mSaKrZZeQvtIw2-MbNDEkAvXqH9JvYvyspajHjUdHKKoRi8pqzGcP5nP6UdFOvQbLE_WC0?></g></svg>